<svg width="42" height="36" viewBox="0 0 42 36" fill="none" xmlns="http://www.w3.org/2000/svg">
<path d="M29.6695 30.9933C29.6695 30.9933 29.6519 31.005 29.6402 31.0108L22.692 35.0206C21.6968 35.5942 20.4734 35.5942 19.4783 35.0206L12.53 31.0108C12.53 31.0108 12.5124 31.005 12.5007 30.9933C10.8383 30.0098 10.8383 27.5396 12.5007 26.5562C12.5124 26.5503 12.5183 26.5445 12.53 26.5386L19.4783 22.5289C20.4734 21.9552 21.6968 21.9552 22.692 22.5289L29.6402 26.5386C29.6402 26.5386 29.6578 26.5445 29.6695 26.5562C31.332 27.5396 31.332 30.0098 29.6695 30.9933Z" fill="url(#paint0_linear_49789_3079)"/>
<path d="M18.6529 19.9767C18.6529 19.9767 18.6354 19.9884 18.6236 19.9942L11.6753 24.004C10.6802 24.5776 9.45681 24.5776 8.46169 24.004L1.5134 19.9942C1.5134 19.9942 1.49584 19.9884 1.48413 19.9767C-0.178305 18.9932 -0.178305 16.523 1.48413 15.5396C1.49584 15.5337 1.50169 15.5279 1.5134 15.522L8.46169 11.5123C9.45681 10.9386 10.6802 10.9386 11.6753 11.5123L18.6236 15.522C18.6236 15.522 18.6412 15.5279 18.6529 15.5396C20.3153 16.523 20.3153 18.9932 18.6529 19.9767Z" fill="url(#paint1_linear_49789_3079)"/>
<path d="M40.6861 19.9767C40.6861 19.9767 40.6686 19.9884 40.6568 19.9942L33.7086 24.004C32.7134 24.5776 31.49 24.5776 30.4949 24.004L23.5466 19.9942C23.5466 19.9942 23.529 19.9884 23.5173 19.9767C21.8549 18.9932 21.8549 16.523 23.5173 15.5396C23.529 15.5337 23.5349 15.5279 23.5466 15.522L30.4949 11.5123C31.49 10.9386 32.7134 10.9386 33.7086 11.5123L40.6568 15.522C40.6568 15.522 40.6744 15.5279 40.6861 15.5396C42.3485 16.523 42.3485 18.9932 40.6861 19.9767Z" fill="#6F6AF8"/>
<path d="M29.6695 8.96008C29.6695 8.96008 29.6519 8.97178 29.6402 8.97764L22.692 12.9874C21.6968 13.5611 20.4734 13.5611 19.4783 12.9874L12.53 8.97764C12.53 8.97764 12.5124 8.97178 12.5007 8.96008C10.8383 7.97666 10.8383 5.50641 12.5007 4.52299C12.5124 4.51714 12.5183 4.51129 12.53 4.50543L19.4783 0.495674C20.4734 -0.077985 21.6968 -0.077985 22.692 0.495674L29.6402 4.50543C29.6402 4.50543 29.6578 4.51129 29.6695 4.52299C31.332 5.50641 31.332 7.97666 29.6695 8.96008Z" fill="#6F6AF8"/>
<defs>
<linearGradient id="paint0_linear_49789_3079" x1="11.2598" y1="28.7747" x2="30.9163" y2="28.7747" gradientUnits="userSpaceOnUse">
<stop stop-color="#84F8B2"/>
<stop offset="1" stop-color="#8CDCE2"/>
</linearGradient>
<linearGradient id="paint1_linear_49789_3079" x1="0.237305" y1="17.7581" x2="19.8997" y2="17.7581" gradientUnits="userSpaceOnUse">
<stop stop-color="#84F8B2"/>
<stop offset="1" stop-color="#8CDCE2"/>
</linearGradient>
</defs>
</svg>
